<?xml version="1.0" standalone="no"?>
<!DOCTYPE svg PUBLIC "-//W3C//DTD SVG 20010904//EN"
 "http://www.w3.org/TR/2001/REC-SVG-20010904/DTD/svg10.dtd">
<svg version="1.0" xmlns="http://www.w3.org/2000/svg"
 width="225.000000pt" height="225.000000pt" viewBox="0 0 225.000000 225.000000"
 preserveAspectRatio="xMidYMid meet">

<g transform="translate(0.000000,225.000000) scale(0.100000,-0.100000)"
fill="#000000" stroke="none">
<path d="M1042 2237 c-12 -7 -29 -23 -37 -34 -9 -13 -31 -25 -53 -28 -95 -15
-173 -40 -247 -78 -155 -80 -285 -244 -330 -417 -11 -38 -20 -129 -25 -220
l-7 -155 -162 -499 c-173 -532 -175 -540 -128 -584 55 -52 519 -137 862 -158
81 -4 118 -11 141 -25 40 -24 98 -24 138 0 23 14 60 20 146 26 338 20 802 105
857 157 47 44 45 52 -128 584 l-162 499 -7 155 c-5 89 -15 183 -25 220 -45
173 -175 337 -330 417 -74 38 -151 63 -248 78 -23 4 -43 14 -52 29 -9 13 -27
28 -41 34 -33 16 -133 15 -162 -1z m148 -76 c6 -13 10 -163 10 -421 0 -258 -4
-408 -10 -421 -15 -28 -115 -28 -130 0 -6 13 -10 163 -10 421 0 258 4 408 10
421 9 15 22 19 65 19 43 0 56 -4 65 -19z m-202 -420 l2 -363 -27 7 c-16 4 -74
9 -130 12 -131 6 -182 -10 -257 -78 -62 -56 -50 -30 -307 -666 -85 -211 -158
-383 -162 -383 -4 0 -10 7 -13 15 -3 8 69 246 160 529 l166 514 0 119 c1 223
49 354 179 483 86 86 164 131 273 160 125 33 113 71 116 -349z m427 338 c194
-60 357 -241 400 -444 8 -38 15 -123 15 -188 l0 -119 166 -514 c91 -283 163
-521 160 -529 -3 -8 -9 -15 -13 -15 -4 0 -77 172 -162 383 -257 636 -245 610
-307 666 -75 68 -126 84 -257 78 -56 -3 -114 -8 -129 -12 l-28 -7 0 359 c0
198 3 363 7 367 9 9 72 -1 148 -25z m-495 -755 c30 -9 65 -28 79 -43 38 -41
64 -51 126 -51 63 0 88 10 126 51 15 16 49 34 84 45 119 34 259 -2 320 -82 23
-30 421 -992 413 -999 -7 -6 -195 -46 -303 -64 -151 -25 -425 -55 -425 -47 0
2 36 27 80 56 l80 52 34 -16 c42 -20 59 -20 97 0 42 21 64 75 49 120 -6 18
-22 42 -35 52 l-24 19 90 134 c117 174 123 187 108 205 -27 33 -46 13 -163
-161 l-116 -175 -154 181 c-151 179 -154 183 -158 236 -6 73 -39 108 -103 108
-64 0 -97 -35 -103 -108 -4 -53 -7 -57 -158 -236 l-154 -181 -116 175 c-117
174 -136 194 -163 161 -15 -18 -9 -31 108 -205 l90 -134 -24 -19 c-13 -10 -29
-34 -35 -52 -15 -45 7 -99 49 -120 38 -20 55 -20 97 0 l34 16 80 -52 c44 -29
79 -54 78 -56 -6 -5 -219 16 -353 36 -113 16 -364 67 -373 75 -7 6 389 967
410 996 26 35 94 78 141 89 54 13 131 11 187 -6z m228 -456 c7 -7 12 -22 12
-35 0 -20 -5 -23 -35 -23 -30 0 -35 3 -35 23 0 24 17 47 35 47 6 0 16 -5 23
-12z m184 -309 c84 -99 154 -187 156 -195 3 -12 -51 -14 -363 -14 -312 0 -366
2 -363 14 2 8 72 96 156 195 l153 181 54 0 54 0 153 -181z m-637 -244 c0 -25
-4 -30 -24 -30 -32 0 -49 28 -31 50 7 9 23 15 34 13 16 -2 21 -10 21 -33z
m916 19 c17 -21 0 -49 -32 -49 -24 0 -36 23 -25 51 7 19 40 18 57 -2z m-197
-63 c-15 -14 -283 -191 -289 -191 -6 0 -274 177 -289 191 -6 5 118 9 289 9
171 0 295 -4 289 -9z"/>
<path d="M1352 2011 c-8 -4 -12 -18 -10 -31 2 -17 16 -27 57 -42 48 -18 55
-19 68 -5 29 28 1 56 -82 81 -11 3 -26 2 -33 -3z"/>
<path d="M1530 1890 c-9 -17 -4 -27 28 -62 22 -24 56 -69 76 -100 20 -32 41
-58 46 -58 10 0 40 28 40 39 0 16 -74 129 -108 164 -40 41 -66 47 -82 17z"/>
<path d="M703 1239 c-72 -35 -133 -121 -133 -185 0 -40 30 -94 64 -115 27 -16
52 -19 182 -19 138 0 154 2 178 21 55 43 72 122 41 197 -36 85 -100 122 -212
122 -59 0 -88 -5 -120 -21z m216 -67 c41 -30 61 -65 63 -106 1 -31 -4 -44 -26
-63 -25 -21 -36 -23 -136 -23 -60 0 -120 4 -134 10 -32 12 -51 50 -42 85 10
38 65 94 111 111 50 18 131 11 164 -14z"/>
<path d="M1315 1244 c-73 -40 -114 -106 -115 -182 0 -50 19 -92 56 -121 24
-19 40 -21 178 -21 172 0 199 9 230 75 35 74 -2 166 -93 230 -39 27 -51 30
-134 33 -70 2 -99 -2 -122 -14z m170 -55 c46 -13 111 -73 121 -113 9 -36 -9
-74 -42 -86 -14 -6 -74 -10 -132 -10 -116 0 -145 10 -162 55 -13 33 5 86 38
119 46 43 104 55 177 35z"/>
<path d="M572 828 c-16 -16 -15 -23 4 -42 13 -13 44 -16 178 -16 177 0 205 7
192 48 -7 22 -11 22 -185 22 -124 0 -181 -4 -189 -12z"/>
<path d="M1304 818 c-13 -41 15 -48 192 -48 134 0 165 3 178 16 19 19 20 26 4
42 -8 8 -65 12 -189 12 -174 0 -178 0 -185 -22z"/>
<path d="M1096 614 c-3 -9 -6 -55 -6 -104 0 -104 5 -120 35 -120 30 0 35 16
35 120 0 104 -5 120 -35 120 -13 0 -26 -7 -29 -16z"/>
<path d="M932 521 c-9 -5 -12 -26 -10 -67 3 -55 4 -59 28 -59 23 0 25 4 28 53
4 67 -13 94 -46 73z"/>
<path d="M1281 516 c-7 -8 -11 -37 -9 -68 3 -49 5 -53 28 -53 24 0 25 4 28 59
2 41 -1 62 -10 67 -18 12 -24 11 -37 -5z"/>
</g>
</svg>
